<svg width="22" height="21" viewBox="0 0 22 21" fill="none" xmlns="http://www.w3.org/2000/svg">
<g clip-path="url(#clip0_6_21)">
<path d="M15.9277 3.04688V4.54102H14.3555V3.13477C14.3555 2.11914 13.8086 1.5918 12.8418 1.5918H3.08594C2.10938 1.5918 1.57227 2.11914 1.57227 3.13477V12.8418C1.57227 13.8574 2.10938 14.3848 3.08594 14.3848H4.73633V15.957H3.06641C1.01562 15.957 0 14.9414 0 12.9297V3.04688C0 1.03516 1.01562 0.0195312 3.06641 0.0195312H12.8711C14.9023 0.0195312 15.9277 1.03516 15.9277 3.04688Z" fill="#555555"/>
<path d="M7.80273 20.4785H17.6074C19.6387 20.4785 20.6641 19.4629 20.6641 17.4512V7.56836C20.6641 5.55664 19.6387 4.54102 17.6074 4.54102H7.80273C5.75195 4.54102 4.73633 5.54688 4.73633 7.56836V17.4512C4.73633 19.4629 5.75195 20.4785 7.80273 20.4785ZM7.82227 18.9062C6.85547 18.9062 6.30859 18.3789 6.30859 17.3633V7.65625C6.30859 6.64062 6.85547 6.11328 7.82227 6.11328H17.5781C18.5449 6.11328 19.0918 6.64062 19.0918 7.65625V17.3633C19.0918 18.3789 18.5449 18.9062 17.5781 18.9062H7.82227Z" fill="#555555"/>
</g>
<defs>
<clipPath id="clip0_6_21">
<rect width="21.0254" height="20.4785" fill="white"/>
</clipPath>
</defs>
</svg>
